<svg width="24" height="24" viewBox="0 0 24 24" fill="none" xmlns="http://www.w3.org/2000/svg">
<path d="M3.2002 11.2013L10.9202 4.1773C11.2151 3.90746 11.6004 3.75781 12.0002 3.75781C12.4 3.75781 12.7852 3.90746 13.0802 4.1773L20.8002 11.2013" fill="#39814F"/>
<path d="M4.8002 9.6013V19.2013C4.8002 19.4135 4.88448 19.617 5.03451 19.767C5.18454 19.917 5.38802 20.0013 5.6002 20.0013H9.60019V13.6013H14.4002V20.0013H18.4002C18.6124 20.0013 18.8159 19.917 18.9659 19.767C19.1159 19.617 19.2002 19.4135 19.2002 19.2013V9.6013" fill="#39814F"/>
<path d="M2.52722 10.4616C2.11871 10.8333 2.08886 11.4658 2.46053 11.8743C2.83221 12.2828 3.46467 12.3126 3.87317 11.941L2.52722 10.4616ZM10.9202 4.1773L11.5932 4.91697L11.5952 4.91512L10.9202 4.1773ZM13.0802 4.1773L12.4052 4.91512L12.4072 4.91697L13.0802 4.1773ZM20.1272 11.941C20.5357 12.3126 21.1682 12.2828 21.5399 11.8743C21.9115 11.4658 21.8817 10.8333 21.4732 10.4616L20.1272 11.941ZM9.60019 20.0013V21.0013C10.1525 21.0013 10.6002 20.5536 10.6002 20.0013H9.60019ZM9.60019 13.6013V12.6013C9.04791 12.6013 8.60019 13.049 8.60019 13.6013H9.60019ZM14.4002 13.6013H15.4002C15.4002 13.049 14.9525 12.6013 14.4002 12.6013V13.6013ZM14.4002 20.0013H13.4002C13.4002 20.5536 13.8479 21.0013 14.4002 21.0013V20.0013ZM3.87317 11.941L11.5932 4.91697L10.2472 3.43764L2.52722 10.4616L3.87317 11.941ZM11.5952 4.91512C11.7058 4.81393 11.8503 4.75781 12.0002 4.75781V2.75781C11.3506 2.75781 10.7245 3.00099 10.2452 3.43949L11.5952 4.91512ZM12.0002 4.75781C12.1501 4.75781 12.2946 4.81393 12.4052 4.91512L13.7552 3.43949C13.2759 3.001 12.6498 2.75781 12.0002 2.75781V4.75781ZM12.4072 4.91697L20.1272 11.941L21.4732 10.4616L13.7532 3.43764L12.4072 4.91697ZM3.8002 9.6013V19.2013H5.8002V9.6013H3.8002ZM3.8002 19.2013C3.8002 19.6787 3.98984 20.1365 4.3274 20.4741L5.74162 19.0599C5.77913 19.0974 5.8002 19.1483 5.8002 19.2013H3.8002ZM4.3274 20.4741C4.66497 20.8117 5.12281 21.0013 5.6002 21.0013V19.0013C5.65324 19.0013 5.70411 19.0224 5.74162 19.0599L4.3274 20.4741ZM5.6002 21.0013H9.60019V19.0013H5.6002V21.0013ZM10.6002 20.0013V13.6013H8.60019V20.0013H10.6002ZM9.60019 14.6013H14.4002V12.6013H9.60019V14.6013ZM13.4002 13.6013V20.0013H15.4002V13.6013H13.4002ZM14.4002 21.0013H18.4002V19.0013H14.4002V21.0013ZM18.4002 21.0013C18.8776 21.0013 19.3354 20.8117 19.673 20.4741L18.2588 19.0599C18.2963 19.0224 18.3472 19.0013 18.4002 19.0013V21.0013ZM19.673 20.4741C20.0106 20.1365 20.2002 19.6787 20.2002 19.2013H18.2002C18.2002 19.1483 18.2213 19.0974 18.2588 19.0599L19.673 20.4741ZM20.2002 19.2013V9.6013H18.2002V19.2013H20.2002Z" fill="#39814F"/>
</svg>
