<svg width="24" height="24" viewBox="0 0 24 24" fill="none" xmlns="http://www.w3.org/2000/svg">
<g clip-path="url(#clip0_1332_4335)">
<mask id="mask0_1332_4335" style="mask-type:alpha" maskUnits="userSpaceOnUse" x="0" y="0" width="24" height="24">
<rect width="24" height="24" fill="#D9D9D9"/>
</mask>
<g mask="url(#mask0_1332_4335)">
<path d="M7.5 21V20.5H7C6.58366 20.5 6.2397 20.3576 5.94105 20.0589C5.64241 19.7603 5.5 19.4163 5.5 19V8C5.5 7.58366 5.64241 7.2397 5.94105 6.94105C6.2397 6.64241 6.58366 6.5 7 6.5H9H9.5V6V4C9.5 3.58366 9.64241 3.2397 9.94105 2.94105C10.2397 2.64241 10.5837 2.5 11 2.5H13C13.4163 2.5 13.7603 2.64241 14.0589 2.94105C14.3576 3.2397 14.5 3.58366 14.5 4V6V6.5H15H17C17.4163 6.5 17.7603 6.64241 18.0589 6.94105C18.3576 7.2397 18.5 7.58366 18.5 8V19C18.5 19.4163 18.3576 19.7603 18.0589 20.0589C17.7603 20.3576 17.4163 20.5 17 20.5H16.5V21C16.5 21.1574 16.4522 21.2657 16.3589 21.3589C16.2657 21.4522 16.1574 21.5 16 21.5C15.8426 21.5 15.7343 21.4522 15.6411 21.3589C15.5478 21.2657 15.5 21.1574 15.5 21V20.5H15H9H8.5V21C8.5 21.1574 8.45222 21.2657 8.35895 21.3589C8.26568 21.4522 8.15742 21.5 8 21.5C7.84258 21.5 7.73432 21.4522 7.64105 21.3589C7.54778 21.2657 7.5 21.1574 7.5 21ZM6.5 19V19.5H7H17H17.5V19V8V7.5H17H7H6.5V8V19ZM10.5 6V6.5H11H13H13.5V6V4V3.5H13H11H10.5V4V6Z" stroke="#0F2417"/>
<path d="M11 18H9V9H11V18Z" fill="#0F2417"/>
<path d="M15 18H13V9H15V18Z" fill="#0F2417"/>
</g>
</g>
<defs>
<clipPath id="clip0_1332_4335">
<rect width="24" height="24" fill="white"/>
</clipPath>
</defs>
</svg>
