<svg width="24" height="24" viewBox="0 0 24 24" fill="none" xmlns="http://www.w3.org/2000/svg">
<g clip-path="url(#clip0_1332_4330)">
<mask id="mask0_1332_4330" style="mask-type:alpha" maskUnits="userSpaceOnUse" x="0" y="0" width="24" height="24">
<rect width="24" height="24" fill="#D9D9D9"/>
</mask>
<g mask="url(#mask0_1332_4330)">
<path d="M11.9999 13.5L17.9999 9.5L11.9999 5.5V13.5ZM12.6999 19H18.2999C18.1833 19.4333 17.9833 19.7833 17.6999 20.05C17.4166 20.3167 17.0499 20.4833 16.5999 20.55L5.69994 21.875C5.14994 21.9583 4.65411 21.8292 4.21244 21.4875C3.77078 21.1458 3.51661 20.7 3.44994 20.15L2.12494 9.225C2.05828 8.675 2.19161 8.18333 2.52494 7.75C2.85828 7.31667 3.29994 7.06667 3.84994 7L4.99994 6.85V8.85L4.09994 8.975L5.44994 19.9L12.6999 19ZM8.99994 17C8.44994 17 7.97911 16.8042 7.58744 16.4125C7.19578 16.0208 6.99994 15.55 6.99994 15V4C6.99994 3.45 7.19578 2.97917 7.58744 2.5875C7.97911 2.19583 8.44994 2 8.99994 2H19.9999C20.5499 2 21.0208 2.19583 21.4124 2.5875C21.8041 2.97917 21.9999 3.45 21.9999 4V15C21.9999 15.55 21.8041 16.0208 21.4124 16.4125C21.0208 16.8042 20.5499 17 19.9999 17H8.99994ZM8.99994 15H19.9999V4H8.99994V15Z" fill="#0F2417"/>
</g>
</g>
<defs>
<clipPath id="clip0_1332_4330">
<rect width="24" height="24" fill="white"/>
</clipPath>
</defs>
</svg>
