<svg id="SvgjsSvg1064" width="550" height="550" xmlns="http://www.w3.org/2000/svg" version="1.1" xmlns:xlink="http://www.w3.org/1999/xlink" xmlns:svgjs="http://svgjs.com/svgjs"><defs id="SvgjsDefs1065"></defs><g id="SvgjsG1066"><svg xmlns="http://www.w3.org/2000/svg" enable-background="new 0 0 850 850" viewBox="0 0 850 850" width="550" height="550"><path fill="#64d864" d="M727.8,586H425.8c-10.5,0-19-8.5-19-19V209.1c0-10.5,8.5-19,19-19h302.1c10.5,0,19,8.5,19,19V567
			C746.9,577.5,738.4,586,727.8,586z" class="color64d864 svgShape"></path><rect width="229.9" height="39.4" x="461.8" y="371.7" fill="#ffffff" class="colorfff svgShape"></rect><path fill="#64d864" d="M482.4 395.2v1h-8v-11.3h7.7v1h-6.5v4h5.8v1h-5.8v4.2H482.4zM484 391.3h4.2v1H484V391.3zM504.8 391.3v4.9h-1.1v-4.8c0-1.8-.9-2.7-2.4-2.7-1.7 0-2.8 1.1-2.8 3.1v4.4h-1.1v-4.8c0-1.8-.9-2.7-2.4-2.7-1.7 0-2.8 1.1-2.8 3.1v4.4h-1.1v-8.5h1.1v1.5c.6-1 1.7-1.6 3.1-1.6 1.4 0 2.5.6 3 1.8.6-1.1 1.8-1.8 3.4-1.8C503.4 387.7 504.8 388.9 504.8 391.3zM514.3 390.9v5.3h-1.1v-1.3c-.5.9-1.5 1.4-2.9 1.4-1.9 0-3.1-1-3.1-2.5 0-1.3.8-2.4 3.3-2.4h2.7v-.5c0-1.5-.8-2.2-2.4-2.2-1.1 0-2.1.4-2.8 1l-.5-.9c.9-.7 2.1-1.1 3.4-1.1C513.1 387.7 514.3 388.8 514.3 390.9zM513.2 393.7v-1.4h-2.7c-1.6 0-2.2.6-2.2 1.5 0 1 .8 1.6 2.1 1.6C511.8 395.4 512.7 394.8 513.2 393.7zM517.2 385c0-.4.4-.8.8-.8.5 0 .8.4.8.8 0 .5-.4.8-.8.8C517.5 385.9 517.2 385.5 517.2 385zM517.4 387.7h1.1v8.5h-1.1V387.7zM521.7 384.2h1.1v12h-1.1V384.2z" class="color64d864 svgShape"></path><rect width="229.9" height="39.4" x="461.8" y="425.4" fill="#ffffff" class="colorfff svgShape"></rect><path fill="#64d864" d="M483.3 442.6c0 2.4-1.7 3.9-4.6 3.9h-3v3.6h-1.2v-11.3h4.2C481.5 438.8 483.3 440.2 483.3 442.6zM482.1 442.6c0-1.8-1.2-2.8-3.4-2.8h-3v5.6h3C480.9 445.4 482.1 444.4 482.1 442.6zM491.9 444.8v5.3h-1.1v-1.3c-.5.9-1.5 1.4-2.9 1.4-1.9 0-3.1-1-3.1-2.5 0-1.3.8-2.4 3.3-2.4h2.7v-.5c0-1.5-.8-2.2-2.4-2.2-1.1 0-2.1.4-2.8 1l-.5-.9c.9-.7 2.1-1.1 3.4-1.1C490.7 441.5 491.9 442.6 491.9 444.8zM490.8 447.5v-1.4h-2.7c-1.6 0-2.2.6-2.2 1.5 0 1 .8 1.6 2.1 1.6C489.4 449.2 490.3 448.6 490.8 447.5zM493.8 449.1l.5-.9c.7.5 1.8 1 3 1 1.6 0 2.3-.5 2.3-1.4 0-2.2-5.5-.5-5.5-3.8 0-1.4 1.2-2.4 3.4-2.4 1.1 0 2.3.3 3 .8l-.5.9c-.7-.5-1.6-.7-2.5-.7-1.5 0-2.2.6-2.2 1.4 0 2.3 5.5.6 5.5 3.8 0 1.5-1.3 2.4-3.5 2.4C495.9 450.1 494.5 449.7 493.8 449.1zM501.7 449.1l.5-.9c.7.5 1.8 1 3 1 1.6 0 2.3-.5 2.3-1.4 0-2.2-5.5-.5-5.5-3.8 0-1.4 1.2-2.4 3.4-2.4 1.1 0 2.3.3 3 .8l-.5.9c-.7-.5-1.6-.7-2.5-.7-1.5 0-2.2.6-2.2 1.4 0 2.3 5.5.6 5.5 3.8 0 1.5-1.3 2.4-3.5 2.4C503.8 450.1 502.4 449.7 501.7 449.1zM523.1 441.6l-3.2 8.5h-1.1l-2.7-6.9-2.7 6.9h-1.1l-3.2-8.5h1.1l2.7 7.2 2.7-7.2h1l2.7 7.2 2.7-7.2H523.1zM523.7 445.8c0-2.5 1.8-4.3 4.3-4.3 2.5 0 4.3 1.8 4.3 4.3 0 2.5-1.8 4.3-4.3 4.3C525.5 450.1 523.7 448.3 523.7 445.8zM531.2 445.8c0-2-1.3-3.3-3.1-3.3-1.8 0-3.2 1.3-3.2 3.3 0 2 1.4 3.3 3.2 3.3C529.8 449.1 531.2 447.8 531.2 445.8zM538.9 441.5v1.1c-.1 0-.2 0-.3 0-1.8 0-2.9 1.1-2.9 3.1v4.3h-1.1v-8.5h1.1v1.7C536.3 442.1 537.4 441.5 538.9 441.5zM548.6 438.1v12h-1.1v-1.7c-.7 1.1-1.9 1.8-3.3 1.8-2.4 0-4.2-1.8-4.2-4.3 0-2.6 1.8-4.3 4.2-4.3 1.4 0 2.5.6 3.2 1.7v-5.1H548.6zM547.5 445.8c0-2-1.4-3.3-3.1-3.3-1.8 0-3.2 1.3-3.2 3.3 0 2 1.4 3.3 3.2 3.3C546.2 449.1 547.5 447.8 547.5 445.8z" class="color64d864 svgShape"></path><path fill="#ffffff" d="M517.8 486.9H514l-.8 1.8h-.7l3.1-6.7h.7l3.1 6.7h-.8L517.8 486.9zM517.5 486.3l-1.6-3.6-1.6 3.6H517.5zM520.3 481.5h.7v7.1h-.7V481.5zM525.4 483.6v.7c-.1 0-.1 0-.2 0-1.1 0-1.7.7-1.7 1.9v2.6h-.7v-5.1h.7v1C523.9 483.9 524.5 483.6 525.4 483.6zM531 486.3h-4.2c.1 1.1.9 1.8 2 1.8.6 0 1.2-.2 1.5-.7l.4.4c-.5.5-1.2.8-2 .8-1.6 0-2.7-1.1-2.7-2.6 0-1.5 1-2.6 2.5-2.6 1.4 0 2.5 1 2.5 2.6C531 486.2 531 486.3 531 486.3zM526.8 485.8h3.6c-.1-1-.8-1.7-1.8-1.7C527.6 484.1 526.9 484.8 526.8 485.8zM536.1 485.5v3.1h-.7v-.8c-.3.5-.9.8-1.7.8-1.1 0-1.8-.6-1.8-1.5 0-.8.5-1.4 2-1.4h1.6v-.3c0-.9-.5-1.3-1.4-1.3-.7 0-1.3.2-1.7.6l-.3-.5c.5-.4 1.3-.7 2.1-.7C535.4 483.6 536.1 484.2 536.1 485.5zM535.4 487.1v-.8h-1.6c-1 0-1.3.4-1.3.9 0 .6.5 1 1.3 1C534.6 488.2 535.2 487.8 535.4 487.1zM542.6 481.5v7.1H542v-1c-.4.7-1.1 1-2 1-1.4 0-2.5-1-2.5-2.6 0-1.5 1.1-2.6 2.5-2.6.8 0 1.5.3 1.9 1v-3H542.6zM541.9 486.1c0-1.2-.8-2-1.9-2-1.1 0-1.9.8-1.9 2s.8 2 1.9 2C541.1 488.1 541.9 487.3 541.9 486.1zM548.8 483.6l-2.5 5.7c-.4 1-1 1.3-1.7 1.3-.5 0-.9-.2-1.2-.5l.3-.5c.2.3.6.4.9.4.5 0 .8-.2 1-.8l.2-.5-2.3-5.1h.7l1.9 4.3 1.9-4.3H548.8zM556.1 485.5v3.1h-.7v-.8c-.3.5-.9.8-1.7.8-1.1 0-1.8-.6-1.8-1.5 0-.8.5-1.4 2-1.4h1.6v-.3c0-.9-.5-1.3-1.4-1.3-.7 0-1.3.2-1.7.6l-.3-.5c.5-.4 1.3-.7 2.1-.7C555.4 483.6 556.1 484.2 556.1 485.5zM555.4 487.1v-.8h-1.6c-1 0-1.3.4-1.3.9 0 .6.5 1 1.3 1C554.6 488.2 555.1 487.8 555.4 487.1zM568.8 485.7v2.9h-.7v-2.9c0-1.1-.5-1.6-1.5-1.6-1 0-1.7.7-1.7 1.8v2.7h-.7v-2.9c0-1.1-.5-1.6-1.5-1.6-1 0-1.7.7-1.7 1.8v2.7h-.7v-5.1h.7v.9c.4-.6 1-1 1.9-1 .8 0 1.5.4 1.8 1.1.4-.7 1.1-1.1 2-1.1C568 483.6 568.8 484.3 568.8 485.7zM575.1 486.3h-4.2c.1 1.1.9 1.8 2 1.8.6 0 1.2-.2 1.5-.7l.4.4c-.5.5-1.2.8-2 .8-1.6 0-2.7-1.1-2.7-2.6 0-1.5 1-2.6 2.5-2.6 1.4 0 2.5 1 2.5 2.6C575.1 486.2 575.1 486.3 575.1 486.3zM570.9 485.8h3.6c-.1-1-.8-1.7-1.8-1.7C571.7 484.1 571 484.8 570.9 485.8zM584.9 485.7v2.9h-.7v-2.9c0-1.1-.5-1.6-1.5-1.6-1 0-1.7.7-1.7 1.8v2.7h-.7v-2.9c0-1.1-.5-1.6-1.5-1.6-1 0-1.7.7-1.7 1.8v2.7h-.7v-5.1h.7v.9c.4-.6 1-1 1.9-1 .8 0 1.5.4 1.8 1.1.4-.7 1.1-1.1 2-1.1C584.1 483.6 584.9 484.3 584.9 485.7zM591.9 486.1c0 1.5-1.1 2.6-2.5 2.6-.8 0-1.5-.4-2-1v1h-.7v-7.1h.7v3c.4-.7 1.1-1 1.9-1C590.8 483.6 591.9 484.6 591.9 486.1zM591.2 486.1c0-1.2-.8-2-1.9-2-1.1 0-1.9.8-1.9 2s.8 2 1.9 2C590.4 488.1 591.2 487.3 591.2 486.1zM597.7 486.3h-4.2c.1 1.1.9 1.8 2 1.8.6 0 1.2-.2 1.5-.7l.4.4c-.5.5-1.2.8-2 .8-1.6 0-2.7-1.1-2.7-2.6 0-1.5 1-2.6 2.5-2.6 1.4 0 2.5 1 2.5 2.6C597.7 486.2 597.7 486.3 597.7 486.3zM593.5 485.8h3.6c-.1-1-.8-1.7-1.8-1.7C594.3 484.1 593.6 484.8 593.5 485.8zM601.7 483.6v.7c-.1 0-.1 0-.2 0-1.1 0-1.7.7-1.7 1.9v2.6h-.7v-5.1h.7v1C600.1 483.9 600.7 483.6 601.7 483.6zM606.1 483.6c0-.7-.6-1.2-1.5-1.2-.8 0-1.4.3-1.8.8l-.5-.4c.5-.6 1.3-1 2.4-1 1.3 0 2.2.6 2.2 1.7 0 1.6-1.8 1.7-1.8 3.1h-.7C604.3 485.1 606.1 484.9 606.1 483.6zM604.2 488.2c0-.3.2-.5.5-.5.3 0 .5.2.5.5 0 .3-.2.5-.5.5C604.4 488.7 604.2 488.5 604.2 488.2zM610.9 481.9h1.6v5.5h3.4v1.3h-4.9V481.9zM616.1 486.1c0-1.6 1.2-2.7 2.8-2.7 1.6 0 2.8 1.1 2.8 2.7s-1.2 2.7-2.8 2.7C617.3 488.7 616.1 487.6 616.1 486.1zM620.3 486.1c0-.9-.6-1.4-1.3-1.4-.8 0-1.3.5-1.3 1.4s.6 1.4 1.3 1.4C619.7 487.5 620.3 487 620.3 486.1zM628.2 483.5v4.3c0 1.9-1 2.8-2.9 2.8-1 0-1.9-.2-2.5-.7l.6-1.1c.4.4 1.2.6 1.8.6 1.1 0 1.5-.5 1.5-1.4v-.2c-.4.4-1 .6-1.6.6-1.4 0-2.6-1-2.6-2.5 0-1.5 1.2-2.5 2.6-2.5.7 0 1.3.2 1.7.7v-.7H628.2zM626.7 485.9c0-.8-.6-1.3-1.4-1.3s-1.4.5-1.4 1.3c0 .8.6 1.3 1.4 1.3S626.7 486.7 626.7 485.9zM632.1 481.9c0-.5.4-.8.9-.8.6 0 .9.3.9.8 0 .5-.4.9-.9.9C632.5 482.8 632.1 482.4 632.1 481.9zM632.3 483.5h1.5v5.2h-1.5V483.5zM640.5 485.7v3H639v-2.7c0-.8-.4-1.2-1-1.2-.7 0-1.2.4-1.2 1.4v2.6h-1.5v-5.2h1.4v.6c.4-.4 1-.7 1.7-.7C639.6 483.4 640.5 484.1 640.5 485.7z" class="colorfff svgShape"></path><rect width="229.9" height="39.4" x="461.8" y="502.5" fill="#8fe58f" class="color8fe58f svgShape"></rect><g><path fill="#ffffff" d="M547.1 528.3l-2.9-4.1c-.3 0-.6 0-.8 0H540v4.1h-1.9v-13.5h5.3c3.5 0 5.6 1.8 5.6 4.7 0 2.1-1.1 3.6-3 4.3l3.2 4.5H547.1zM547.1 519.6c0-1.9-1.3-3-3.8-3H540v6.1h3.3C545.8 522.6 547.1 521.5 547.1 519.6zM561 523.9h-8.3c.2 1.8 1.7 3 3.7 3 1.2 0 2.2-.4 2.9-1.2l1 1.2c-.9 1.1-2.3 1.7-4 1.7-3.3 0-5.5-2.2-5.5-5.2 0-3 2.2-5.2 5.1-5.2 2.9 0 5 2.1 5 5.3C561.1 523.5 561 523.7 561 523.9zM552.7 522.5h6.5c-.2-1.7-1.5-2.9-3.3-2.9C554.3 519.6 552.9 520.8 552.7 522.5zM573.4 518.1v8.8c0 3.6-1.8 5.2-5.3 5.2-1.9 0-3.8-.5-4.9-1.5l.9-1.4c.9.8 2.4 1.3 3.9 1.3 2.4 0 3.5-1.1 3.5-3.4v-.8c-.9 1.1-2.2 1.6-3.7 1.6-2.9 0-5.2-2-5.2-4.9 0-2.9 2.2-4.9 5.2-4.9 1.5 0 2.9.6 3.8 1.7v-1.6H573.4zM571.6 523c0-2-1.5-3.3-3.5-3.3-2.1 0-3.5 1.3-3.5 3.3 0 2 1.5 3.3 3.5 3.3C570.1 526.3 571.6 524.9 571.6 523zM576.6 515c0-.7.5-1.2 1.3-1.2.7 0 1.3.5 1.3 1.2 0 .7-.5 1.2-1.3 1.2C577.1 516.2 576.6 515.7 576.6 515zM576.9 518.1h1.8v10.2h-1.8V518.1zM581 527.3l.8-1.5c.9.6 2.3 1.1 3.6 1.1 1.7 0 2.4-.5 2.4-1.4 0-2.3-6.5-.3-6.5-4.4 0-1.8 1.6-3.1 4.3-3.1 1.3 0 2.8.3 3.7.9l-.8 1.5c-.9-.6-1.9-.8-2.9-.8-1.6 0-2.4.6-2.4 1.4 0 2.4 6.5.4 6.5 4.4 0 1.8-1.7 3-4.4 3C583.5 528.5 581.9 527.9 581 527.3zM597.7 527.7c-.6.5-1.4.7-2.2.7-2.1 0-3.2-1.1-3.2-3.2v-5.6h-1.7v-1.5h1.7v-2.2h1.8v2.2h2.9v1.5h-2.9v5.5c0 1.1.6 1.7 1.6 1.7.5 0 1.1-.2 1.4-.5L597.7 527.7zM608.8 523.9h-8.3c.2 1.8 1.7 3 3.7 3 1.2 0 2.2-.4 2.9-1.2l1 1.2c-.9 1.1-2.3 1.7-4 1.7-3.3 0-5.5-2.2-5.5-5.2 0-3 2.2-5.2 5.1-5.2 2.9 0 5 2.1 5 5.3C608.8 523.5 608.8 523.7 608.8 523.9zM600.5 522.5h6.5c-.2-1.7-1.5-2.9-3.3-2.9C602 519.6 600.7 520.8 600.5 522.5zM616.9 518v1.8c-.2 0-.3 0-.4 0-2 0-3.2 1.2-3.2 3.4v5.1h-1.8v-10.2h1.8v1.7C613.8 518.7 615.1 518 616.9 518z" class="colorfff svgShape"></path></g><g><path fill="#ffffff" d="M536.6 233.6l.8-1.6c1.1 1 3 1.7 4.9 1.7 2.6 0 3.6-1 3.6-2.3 0-3.6-8.9-1.3-8.9-6.8 0-2.3 1.8-4.2 5.6-4.2 1.7 0 3.5.5 4.7 1.3l-.7 1.7c-1.3-.8-2.7-1.2-4-1.2-2.5 0-3.6 1.1-3.6 2.3 0 3.6 8.9 1.3 8.9 6.8 0 2.3-1.8 4.2-5.7 4.2C540 235.5 537.7 234.7 536.6 233.6zM550.3 220.7c0-.7.6-1.3 1.4-1.3.8 0 1.4.6 1.4 1.3 0 .8-.6 1.3-1.4 1.3C550.9 222 550.3 221.4 550.3 220.7zM550.7 224.2h2v11.2h-2V224.2zM567.3 224.2v9.7c0 3.9-2 5.7-5.8 5.7-2 0-4.1-.6-5.3-1.7l1-1.6c1 .9 2.7 1.5 4.3 1.5 2.6 0 3.8-1.2 3.8-3.8v-.9c-1 1.2-2.4 1.7-4 1.7-3.2 0-5.7-2.2-5.7-5.4 0-3.2 2.4-5.4 5.7-5.4 1.7 0 3.2.6 4.1 1.8v-1.7H567.3zM565.3 229.4c0-2.2-1.6-3.6-3.8-3.6-2.3 0-3.9 1.5-3.9 3.6 0 2.1 1.6 3.6 3.9 3.6C563.7 233.1 565.3 231.6 565.3 229.4zM581.7 228.9v6.4h-2v-6.2c0-2.2-1.1-3.3-3-3.3-2.2 0-3.5 1.3-3.5 3.7v5.8h-2v-11.2h1.9v1.7c.8-1.1 2.3-1.8 4-1.8C579.8 224 581.7 225.6 581.7 228.9zM601.6 224.2v11.2h-1.9v-1.7c-.8 1.2-2.2 1.8-3.8 1.8-2.9 0-4.8-1.6-4.8-4.9v-6.4h2v6.2c0 2.2 1.1 3.3 3 3.3 2.1 0 3.5-1.3 3.5-3.7v-5.8H601.6zM617 229.7c0 3.4-2.4 5.7-5.6 5.7-1.6 0-3-.6-3.9-1.8v5.8h-2v-15.3h1.9v1.8c.9-1.2 2.3-1.9 4-1.9C614.6 224 617 226.3 617 229.7zM615 229.7c0-2.4-1.6-3.9-3.8-3.9-2.1 0-3.8 1.6-3.8 3.9 0 2.4 1.6 3.9 3.8 3.9C613.4 233.7 615 232.1 615 229.7z" class="colorfff svgShape"></path></g><g><rect width="229.9" height="39.4" x="461.8" y="317.9" fill="#ffffff" class="colorfff svgShape"></rect><path fill="#64d864" d="M474.4 331.1h1.2v10.2h6.3v1h-7.5V331.1zM490.1 337.2v5.3H489v-1.3c-.5.9-1.5 1.4-2.9 1.4-1.9 0-3.1-1-3.1-2.5 0-1.3.8-2.4 3.3-2.4h2.7v-.5c0-1.5-.8-2.2-2.4-2.2-1.1 0-2.1.4-2.8 1l-.5-.9c.9-.7 2.1-1.1 3.4-1.1C488.9 333.9 490.1 335 490.1 337.2zM489 339.9v-1.4h-2.7c-1.6 0-2.2.6-2.2 1.5 0 1 .8 1.6 2.1 1.6C487.6 341.6 488.5 341 489 339.9zM492 341.5l.5-.9c.7.5 1.8 1 3 1 1.6 0 2.3-.5 2.3-1.4 0-2.2-5.5-.5-5.5-3.8 0-1.4 1.2-2.4 3.4-2.4 1.1 0 2.3.3 3 .8l-.5.9c-.7-.5-1.6-.7-2.5-.7-1.5 0-2.2.6-2.2 1.4 0 2.3 5.5.6 5.5 3.8 0 1.5-1.3 2.4-3.5 2.4C494.1 342.5 492.7 342 492 341.5zM505.6 341.9c-.5.4-1.1.6-1.8.6-1.6 0-2.5-.9-2.5-2.5v-5.1h-1.5v-1h1.5v-1.9h1.1v1.9h2.6v1h-2.6v5.1c0 1 .5 1.5 1.5 1.5.5 0 .9-.1 1.3-.4L505.6 341.9zM521.5 331.1v11.3h-1l-7.3-9.2v9.2h-1.2v-11.3h1l7.3 9.2v-9.2H521.5zM531.4 337.2v5.3h-1.1v-1.3c-.5.9-1.5 1.4-2.9 1.4-1.9 0-3.1-1-3.1-2.5 0-1.3.8-2.4 3.3-2.4h2.7v-.5c0-1.5-.8-2.2-2.4-2.2-1.1 0-2.1.4-2.8 1l-.5-.9c.9-.7 2.1-1.1 3.4-1.1C530.1 333.9 531.4 335 531.4 337.2zM530.2 339.9v-1.4h-2.7c-1.6 0-2.2.6-2.2 1.5 0 1 .8 1.6 2.1 1.6C528.8 341.6 529.8 341 530.2 339.9zM548.5 337.5v4.9h-1.1v-4.8c0-1.8-.9-2.7-2.4-2.7-1.7 0-2.8 1.1-2.8 3.1v4.4h-1.1v-4.8c0-1.8-.9-2.7-2.4-2.7-1.7 0-2.8 1.1-2.8 3.1v4.4h-1.1v-8.5h1.1v1.5c.6-1 1.7-1.6 3.1-1.6 1.4 0 2.5.6 3 1.8.6-1.1 1.8-1.8 3.4-1.8C547.1 333.9 548.5 335.1 548.5 337.5zM559 338.5h-7.1c.1 1.8 1.5 3 3.3 3 1 0 2-.4 2.6-1.1l.6.7c-.8.9-1.9 1.4-3.3 1.4-2.6 0-4.4-1.8-4.4-4.3 0-2.5 1.8-4.3 4.1-4.3 2.4 0 4.1 1.8 4.1 4.3C559 338.3 559 338.4 559 338.5zM551.9 337.7h6c-.1-1.7-1.4-2.8-3-2.8C553.3 334.9 552 336 551.9 337.7z" class="color64d864 svgShape"></path></g><g><rect width="229.9" height="39.4" x="461.8" y="264.1" fill="#ffffff" class="colorfff svgShape"></rect><path fill="#64d864" d="M475.6 278.4v4.4h5.8v1h-5.8v4.8h-1.2v-11.3h7.7v1H475.6zM484 277.5c0-.4.4-.8.8-.8.5 0 .8.4.8.8 0 .5-.4.8-.8.8C484.3 278.3 484 277.9 484 277.5zM484.2 280.2h1.1v8.5h-1.1V280.2zM492.8 280.1v1.1c-.1 0-.2 0-.3 0-1.8 0-2.9 1.1-2.9 3.1v4.3h-1.1v-8.5h1.1v1.7C490.2 280.7 491.3 280.1 492.8 280.1zM493.8 287.7l.5-.9c.7.5 1.8 1 3 1 1.6 0 2.3-.5 2.3-1.4 0-2.2-5.5-.5-5.5-3.8 0-1.4 1.2-2.4 3.4-2.4 1.1 0 2.3.3 3 .8l-.5.9c-.7-.5-1.6-.7-2.5-.7-1.5 0-2.2.6-2.2 1.4 0 2.3 5.5.6 5.5 3.8 0 1.5-1.3 2.4-3.5 2.4C495.8 288.7 494.5 288.3 493.8 287.7zM507.3 288.1c-.5.4-1.1.6-1.8.6-1.6 0-2.5-.9-2.5-2.5v-5.1h-1.5v-1h1.5v-1.9h1.1v1.9h2.6v1h-2.6v5.1c0 1 .5 1.5 1.5 1.5.5 0 .9-.1 1.3-.4L507.3 288.1zM523.3 277.4v11.3h-1l-7.3-9.2v9.2h-1.2v-11.3h1l7.3 9.2v-9.2H523.3zM533.1 283.4v5.3H532v-1.3c-.5.9-1.5 1.4-2.9 1.4-1.9 0-3.1-1-3.1-2.5 0-1.3.8-2.4 3.3-2.4h2.7v-.5c0-1.5-.8-2.2-2.4-2.2-1.1 0-2.1.4-2.8 1l-.5-.9c.9-.7 2.1-1.1 3.4-1.1C531.9 280.1 533.1 281.2 533.1 283.4zM532 286.1v-1.4h-2.7c-1.6 0-2.2.6-2.2 1.5 0 1 .8 1.6 2.1 1.6C530.6 287.8 531.5 287.2 532 286.1zM550.2 283.7v4.9h-1.1v-4.8c0-1.8-.9-2.7-2.4-2.7-1.7 0-2.8 1.1-2.8 3.1v4.4h-1.1v-4.8c0-1.8-.9-2.7-2.4-2.7-1.7 0-2.8 1.1-2.8 3.1v4.4h-1.1v-8.5h1.1v1.5c.6-1 1.7-1.6 3.1-1.6 1.4 0 2.5.6 3 1.8.6-1.1 1.8-1.8 3.4-1.8C548.9 280.1 550.2 281.3 550.2 283.7zM560.7 284.8h-7.1c.1 1.8 1.5 2.9 3.3 2.9 1 0 2-.4 2.6-1.1l.6.7c-.8.9-1.9 1.4-3.3 1.4-2.6 0-4.4-1.8-4.4-4.3 0-2.5 1.8-4.3 4.1-4.3 2.4 0 4.1 1.8 4.1 4.3C560.7 284.5 560.7 284.6 560.7 284.8zM553.6 283.9h6c-.1-1.7-1.4-2.8-3-2.8C555 281.1 553.8 282.2 553.6 283.9z" class="color64d864 svgShape"></path></g><g><polygon fill="#afafaf" points="159.7 649.5 155.1 648.3 191.8 479 228.3 479 256.5 648.4 251.8 649.4 224.3 483.8 195.5 483.8" class="colorafafaf svgShape"></polygon><path fill="#afafaf" d="M163.1 650.7c0 3.3-2.7 6-6 6-3.3 0-6-2.7-6-6 0-3.3 2.7-6 6-6C160.5 644.7 163.1 647.4 163.1 650.7zM260.1 650.7c0 3.3-2.7 6-6 6-3.3 0-6-2.7-6-6 0-3.3 2.7-6 6-6C257.4 644.7 260.1 647.4 260.1 650.7z" class="colorafafaf svgShape"></path><polygon fill="#afafaf" points="208.2 649.5 203.6 648.3 240.3 479 276.8 479 305 648.4 300.3 649.4 272.8 483.8 244 483.8" class="colorafafaf svgShape"></polygon><path fill="#afafaf" d="M211.6 650.7c0 3.3-2.7 6-6 6-3.3 0-6-2.7-6-6 0-3.3 2.7-6 6-6C209 644.7 211.6 647.4 211.6 650.7zM308.6 650.7c0 3.3-2.7 6-6 6-3.3 0-6-2.7-6-6 0-3.3 2.7-6 6-6C305.9 644.7 308.6 647.4 308.6 650.7zM169.8 366.4h85l3.2 60.4c1.1 20.4 11 39.4 27.2 52l21.3 16.6h-105l-11.2-10.5c-15.5-14.5-24.8-34.6-25.8-55.8l-2.5-54.4C161.8 370.2 165.3 366.4 169.8 366.4z" class="colorafafaf svgShape"></path><path fill="#ffffff" d="M309.7,495.4H202.2c-2,0-3.6-1.6-3.6-3.6l0,0c0-2,1.6-3.6,3.6-3.6h107.5c2,0,3.6,1.6,3.6,3.6l0,0
						C313.3,493.8,311.7,495.4,309.7,495.4z" class="colorfff svgShape"></path><polygon fill="#afafaf" points="180.4 656.8 177.4 656.8 172.3 404.9 185.5 404.9" class="colorafafaf svgShape"></polygon><polygon fill="#afafaf" points="418.5 656.8 415.5 656.8 410.4 404.9 423.6 404.9" class="colorafafaf svgShape"></polygon><path fill="#fbcebb" d="M314.4,397.5c0,0,3.4,2.3,11.2,3.4c0,0,4.8,0.4,3.7-1.7c-1.1-2.1-4.8-4.1-4.8-4.1h5l0,0.1
							c1,2.3,3.3,3.7,5.7,3.5l0,0c3.7-0.3,6.1-4.1,4.8-7.6c-1-2.8-2.4-5.5-4.5-6.4c-4.6-2-18-1.3-18-1.3S310.8,391.1,314.4,397.5z" class="colorfbcebb svgShape"></path><path fill="#43b50f" d="M267.1,311.3c0,0,15,8.5,15.3,14.3c0.3,5.8-7.7,54.1-7.7,54.1l45,3.2c0,0-7.7,4.2-4.8,16.1
						c0,0-43.8,0.5-54.4-2.8C249.9,392.9,267.1,311.3,267.1,311.3z" class="color43b50f svgShape"></path><path fill="#fbcebb" d="M139.3 305.2c0 0 8-14.5 2.4-19.7-5.6-5.1-9.4-4.1-9.4-4.1s-2.9 2.8.2 4.3c3.1 1.5 5.3 5.6 2.1 6.2-3.2.6-6 .7-6.1-2.6-.1-3.4 0-6.9 0-6.9s2.6.8 3.9-1.7c1.2-2.5-.9-5.7-3.9-5.8-3-.1-5.6 2.3-5.5 3.6.1 1.2-4.7-6-10.8-9.5-.9-.5-2.1-.4-2.9.3l0 0c-1.3 1.1-1.2 3.2.3 4.1 3 1.8 7.3 5 9.4 9l-1.2 1.1c0 0-6.5-4.7-10.2-6.9-1.2-.8-2.8-.3-3.5.9l-.2.4c-.7 1.2-.3 2.7.9 3.4l10.6 6.4-.4 2-8.2-3.5c-1.4-.6-3.1.2-3.5 1.7l0 0c-.3 1.2.3 2.5 1.4 3l9.8 4.2c0 0 3.3 13 6.8 16.4C124.8 315 137.4 309.4 139.3 305.2zM328.6 628.7l-7.2-41.8c0 0-15.9-2.5-27.7 8.6l15.7 39.1 4.1-1.3v.3l10.4 9.1 8.7-.2 3.8-4L328.6 628.7z" class="colorfbcebb svgShape"></path><path fill="#afafaf" d="M309.3,634.7c0,0-1.8,18.8-1,22.1c0.8,3.4,37.3,4.9,48.7,0c11.4-4.9-2.5-13.3-7.8-13.3
						c-5.3,0-16.1-9-16.1-9s-0.5,7.8-4.5,3.9C324.6,634.6,317.1,624.2,309.3,634.7z" class="colorafafaf svgShape"></path><path fill="#1a2a37" d="M272,426.4H347c0,0,19.7,3.6,0,31.1c-19.7,27.5-45.9,43.2-45.9,43.2s3-23.9-16.9-18.4l20.1-24.3
					c0,0-41.3,12.4-55.5,12.9C234.5,471.2,234.3,429.7,272,426.4z" class="color1a2a37 svgShape"></path><path fill="#121027" d="M190.5,426.4c0,0,1.4,32.3,12.4,48.7c11,16.4,59.3,49,59.3,49s28.3,59.5,31.5,71.4c0,0,12.9-8.6,27.7-8.6
					c0,0-22.2-72.5-26.1-78.3c-3.9-5.8-31.6-53.2-31.6-53.2s10.6-14.4,4.8-29.1C262.7,411.6,190.5,426.4,190.5,426.4z" class="color121027 svgShape"></path><path fill="#121837" d="M295.3,508.6c-0.8-1.2-2.7-4.4-5.2-8.5c-3.5,5-20,28.7-13.3,21.6c5.5-5.8,15.3-8.6,20.1-9.7
					C296.2,510.3,295.6,509.2,295.3,508.6z" class="color121837 svgShape"></path><polygon fill="#121837" points="267.9 407.6 198.7 405 196 412 267.9 407.6" class="color121837 svgShape"></polygon><path fill="#1e303f" d="M211.5,305.4c0,0-6.7,10,16.2,12.3c22.9,2.3,24.1-10.6,24.1-10.6s-0.5-5.4-8.5-6.8
					c-9.7-1.8-18.7,1.3-21.2,0.4C219.5,299.7,213.4,302,211.5,305.4z" class="color1e303f svgShape"></path><path fill="#fbcebb" d="M244.1,283.8c0.2,3.9-1,16.1,0.1,18.5c0.8,1.7,0.6,3.8-0.6,5.3c-1.4,1.8-4.4,3.5-10.4,3.7
						c-4,0.1-7.1-0.3-9.4-0.8c-3.3-0.8-4.9-4.5-3.1-7.4c2.5-4.1,1.7-17.7-2.6-22" class="colorfbcebb svgShape"></path><path fill="#43b50f" d="M265.1,384.2c3.5-15.6,26.7-24.6,19.1-38.2c-7.7-13.6-16.2-22.1-14.7-29.6c1.5-7.5-16.6-10.3-25.6-13.2
					c-9-2.9-26,0-26,0s-26.7,4.1-31.7,13.7c0,0-14.9,23.4-18.5,39.4c-3.6,16-27.2-52.5-27.2-52.5s-7.6,10-20.9,7.5
					c0,0,20,61.5,39.1,81.5c11.9,12.4,27.2-11,37.1-30.6c2.2,6.6,4.4,12.7,6.1,17.3c2.1,5.7,2,11.9-0.1,17.5l-11.4,29.3
					c23.6,8.3,51,7.9,81.6,0C272,426.4,261.6,399.8,265.1,384.2z" class="color43b50f svgShape"></path><path fill="#1e303f" d="M140.5,303.9c0,0-7.6,10-20.9,7.5c0,0,1.6,4.8,4.2,12.2c11.3-0.8,17.6-4.1,21.1-7.3
					C142.3,309,140.5,303.9,140.5,303.9z" class="color1e303f svgShape"></path><path fill="#fbcebb" d="M284.2,482.3L262.5,507l14.2,14.7l24.3-21.1C301.1,500.6,306.4,475.8,284.2,482.3z" class="colorfbcebb svgShape"></path><path fill="#fbcebb" d="M262.5,507c0,0-24.8,11.3-19.7,18.8c5.1,7.5,29.3,29.1,41.4,22.3c12.1-6.7-7.4-12.8-7.5-26.4
					C276.7,508.1,263.8,506.4,262.5,507z" class="colorfbcebb svgShape"></path><path fill="#afafaf" d="M269.4,523.1c-3.4-2.2,0-4.5-3.5-9.1c-3.5-4.5-13.4-1.5-13.4-1.5c-6.2,3.9-12.5,9.2-9.7,13.4
					c5.1,7.5,29.3,29.1,41.4,22.3c11.2-6.2-4.5-11.8-7.1-23.3C275.5,524.9,272,524.7,269.4,523.1z" class="colorafafaf svgShape"></path><path fill="#8a8a8a" d="M443.6,407.6H158.7c-1.5,0-2.8-1.3-2.8-2.8l0,0c0-1.5,1.3-2.8,2.8-2.8h284.9c1.5,0,2.8,1.3,2.8,2.8l0,0
					C446.4,406.4,445.1,407.6,443.6,407.6z" class="color8a8a8a svgShape"></path><path fill="#afafaf" d="M311.2,402.1h92.2c2.4,0,4.3-1.9,4.3-4.3l0,0H306.9l0,0C306.9,400.1,308.8,402.1,311.2,402.1z" class="colorafafaf svgShape"></path><path fill="#afafaf" d="M323 402.1h101.3c2.4 0 4.3-1.9 4.3-4.3l0 0H328.1C327.3 399.6 326.3 402.1 323 402.1zM449.2 341h-89.4c-2.8 0-5.4 1.6-6.6 4.2l-25.2 52.5h100.8l24.3-50.6C454.4 344.3 452.3 341 449.2 341z" class="colorafafaf svgShape"></path><path fill="#afafaf" d="M359.9,341h-2.7c-2.8,0-5.4,1.6-6.6,4.2l-25.2,52.5h2.7l25.2-52.5C354.5,342.7,357.1,341,359.9,341z" class="colorafafaf svgShape"></path><g><path fill="#1e303f" d="M260.3,248.7c0,0-2.7,27.4,1.1,37c3.8,9.6,12.5,16.5,0.4,34.5c-12,18.1-30.3-4.2-27.2-39.9
					C237.8,244.7,260.3,248.7,260.3,248.7z" class="color1e303f svgShape"></path><path fill="#1e303f" d="M257.5 249.1c0 0-.5 27.5 4 36.8 4.5 9.3 13.7 15.5 3.1 34.4M203.6 248.7c0 0 2.7 27.4-1.1 37-3.8 9.6-12.5 16.5-.4 34.5 12 18.1 30.3-4.2 27.2-39.9S203.6 248.7 203.6 248.7z" class="color1e303f svgShape"></path><path fill="#1e303f" d="M206.4,249.1c0,0,0.5,27.5-4,36.8c-4.5,9.3-13.7,15.5-3.1,34.4" class="color1e303f svgShape"></path><path fill="#fbcebb" d="M203.4 267.1c1.3 4.6 4.8 8.8 7.6 8 2.8-.8 3.8-6.1 2.5-10.8-1.3-4.6-4.3-6.8-7.1-6C203.6 259.1 202.1 262.5 203.4 267.1zM260.5 267.1c-1.3 4.6-4.8 8.8-7.6 8-2.8-.8-3.8-6.1-2.5-10.8 1.3-4.6 4.3-6.8 7.1-6C260.3 259.1 261.8 262.5 260.5 267.1z" class="colorfbcebb svgShape"></path><path fill="#fbcebb" d="M208.7,258.8c0,17,10.5,34.3,23.5,34.3c13,0,23.5-17.3,23.5-34.3s-10.5-27.2-23.5-27.2
					C219.2,231.6,208.7,241.8,208.7,258.8z" class="colorfbcebb svgShape"></path><g><path fill="#1e303f" d="M222.6,237.2c0,0-0.4,21.2,30.1,22.3l0.9,12.7c0,0,7.4-12.1,6.5-25.2C258.7,228.5,225.9,212.9,222.6,237.2
					z" class="color1e303f svgShape"></path><path fill="#1e303f" d="M223.3,238.7c0,0-13.6,6.7-12.7,33c0,0-3.8-7.4-2.6-12.9c-1.8-1.3-3.7,0.4-3.7,0.4s-8-35.4,23-30.1
					C255.8,234.1,223.3,238.7,223.3,238.7z" class="color1e303f svgShape"></path><path fill="#1e303f" d="M223.7,238.7c0.1,1.5,0.4,3.2,0.9,4.7c0.5,1.5,1.1,3,1.9,4.4c1.6,2.8,3.8,5.2,6.4,7.1
					c2.6,1.9,5.5,3.4,8.6,4.4c3.1,1,6.3,1.7,9.6,2.1l-2.4-0.2l-2.4-0.3c-0.8-0.2-1.6-0.3-2.4-0.5c-0.8-0.2-1.6-0.4-2.4-0.6
					c-3.1-1-6.2-2.3-8.9-4.2c-2.7-1.9-5-4.4-6.7-7.3c-1.7-2.9-2.8-6.1-3-9.5L223.7,238.7z" class="color1e303f svgShape"></path></g></g></g></svg></g></svg>